<?xml version="1.0" encoding="UTF-8" standalone="no"?>
<svg width="247px" height="40px" viewBox="0 0 247 40" version="1.1" xmlns="http://www.w3.org/2000/svg" xmlns:xlink="http://www.w3.org/1999/xlink" xmlns:sketch="http://www.bohemiancoding.com/sketch/ns">
    <!-- Generator: Sketch 3.2.2 (9983) - http://www.bohemiancoding.com/sketch -->
    <title>Slice 1</title>
    <desc>Created with Sketch.</desc>
    <defs></defs>
    <g id="Page-1" stroke="none" stroke-width="1" fill="none" fill-rule="evenodd" sketch:type="MSPage">
        <path d="M245.25924,0.0546303479 C244.715996,0.245713343 217.905947,9.69405681 217.376915,9.88040221 C216.928423,10.038322 216.828933,10.4252256 217.361123,10.6368382 C217.994382,10.8910891 223.35576,13.0387988 223.35576,13.0387988 L223.35576,13.0387988 L226.908956,14.4616565 C226.908956,14.4616565 244.024307,1.89439637 244.25487,1.72384296 C244.488592,1.55328954 244.757055,1.8738668 244.588081,2.0570538 C244.419107,2.2402408 232.158211,15.500769 232.158211,15.500769 L232.158211,15.5039274 L231.444414,16.2982641 L232.390353,16.806766 C232.390353,16.806766 239.733626,20.7610785 240.257919,21.0421758 C240.717466,21.2885308 241.312824,21.0848142 241.445477,20.5147236 C241.601817,19.8419851 245.938296,1.15217317 246.034627,0.735264818 C246.159384,0.193599799 245.800905,-0.136452647 245.25924,0.0546303479 L245.25924,0.0546303479 Z M226.877372,22.9972233 C226.877372,23.3857061 227.096881,23.4946708 227.400087,23.2198903 C227.796466,22.8582539 231.900802,19.1755634 231.900802,19.1755634 L226.877372,16.5793614 L226.877372,22.9972233 L226.877372,22.9972233 Z" id="Shape" fill="#3D7BA4" sketch:type="MSShapeGroup"></path>
        <circle id="Oval-1" fill="#3D7BA4" sketch:type="MSShapeGroup" cx="222.5" cy="26.644" r="2.5"></circle>
        <ellipse id="Oval-2" fill="#3D7BA4" sketch:type="MSShapeGroup" cx="215" cy="32.144" rx="2" ry="2"></ellipse>
        <circle id="Oval-3" fill="#3D7BA4" sketch:type="MSShapeGroup" cx="206.5" cy="35.644" r="1.5"></circle>
        <ellipse id="Oval-4" fill="#3D7BA4" sketch:type="MSShapeGroup" cx="197" cy="38.144" rx="1" ry="1"></ellipse>
        <path d="M0.104,16.272 C0.104,14.9759935 0.30799796,13.8200051 0.716,12.804 C1.12400204,11.7879949 1.67599652,10.9280035 2.372,10.224 C3.06800348,9.51999648 3.88399532,8.98400184 4.82,8.616 C5.75600468,8.24799816 6.75199472,8.064 7.808,8.064 C8.91200552,8.064 9.86799596,8.27199792 10.676,8.688 C11.484004,9.10400208 12.1439974,9.57599736 12.656,10.104 L10.712,12.288 C10.3279981,11.9199982 9.92400212,11.632001 9.5,11.424 C9.07599788,11.215999 8.52800336,11.112 7.856,11.112 C7.24799696,11.112 6.69200252,11.2279988 6.188,11.46 C5.68399748,11.6920012 5.24800184,12.0239978 4.88,12.456 C4.51199816,12.8880022 4.228001,13.4159969 4.028,14.04 C3.827999,14.6640031 3.728,15.3679961 3.728,16.152 C3.728,17.7680081 4.09199636,19.0199956 4.82,19.908 C5.54800364,20.7960044 6.64799264,21.24 8.12,21.24 C8.4400016,21.24 8.75199848,21.2000004 9.056,21.12 C9.36000152,21.0399996 9.60799904,20.9200008 9.8,20.76 L9.8,18.072 L7.208,18.072 L7.208,15.192 L12.92,15.192 L12.92,22.392 C12.3599972,22.9200026 11.6240046,23.3679982 10.712,23.736 C9.79999544,24.1040018 8.79200552,24.288 7.688,24.288 C6.63199472,24.288 5.6440046,24.1160017 4.724,23.772 C3.8039954,23.4279983 3.00000344,22.9200034 2.312,22.248 C1.62399656,21.5759966 1.08400196,20.740005 0.692,19.74 C0.29999804,18.739995 0.104,17.5840066 0.104,16.272 L0.104,16.272 Z M16.16,8.352 L25.952,8.352 L25.952,11.328 L19.688,11.328 L19.688,14.472 L25.016,14.472 L25.016,17.424 L19.688,17.424 L19.688,21.024 L26.192,21.024 L26.192,24 L16.16,24 L16.16,8.352 Z M32.36,11.328 L28.064,11.328 L28.064,8.352 L40.208,8.352 L40.208,11.328 L35.912,11.328 L35.912,24 L32.36,24 L32.36,11.328 Z M54.272,17.52 L53.912,16.08 C53.6879989,15.2959961 53.472001,14.4640044 53.264,13.584 C53.055999,12.7039956 52.848001,11.8560041 52.64,11.04 L52.544,11.04 C52.351999,11.8720042 52.156001,12.7239956 51.956,13.596 C51.755999,14.4680044 51.5440011,15.2959961 51.32,16.08 L50.936,17.52 L54.272,17.52 Z M54.992,20.28 L50.216,20.28 L49.256,24 L45.656,24 L50.552,8.352 L54.8,8.352 L59.696,24 L55.952,24 L54.992,20.28 Z M66.392,8.352 L70.016,8.352 L74.096,16.128 L75.632,19.584 L75.728,19.584 C75.6479996,18.7519958 75.5560005,17.8240051 75.452,16.8 C75.3479995,15.7759949 75.296,14.8000046 75.296,13.872 L75.296,8.352 L78.656,8.352 L78.656,24 L75.032,24 L70.952,16.2 L69.416,12.792 L69.32,12.792 C69.4000004,13.6560043 69.4919995,14.583995 69.596,15.576 C69.7000005,16.568005 69.752,17.5279954 69.752,18.456 L69.752,24 L66.392,24 L66.392,8.352 Z M82.352,8.352 L92.144,8.352 L92.144,11.328 L85.88,11.328 L85.88,14.472 L91.208,14.472 L91.208,17.424 L85.88,17.424 L85.88,21.024 L92.384,21.024 L92.384,24 L82.352,24 L82.352,8.352 Z M93.992,8.352 L97.616,8.352 L98.696,15.672 C98.7920005,16.4880041 98.8959994,17.3079959 99.008,18.132 C99.1200006,18.9560041 99.2239995,19.7839958 99.32,20.616 L99.416,20.616 C99.5760008,19.7839958 99.7319992,18.9560041 99.884,18.132 C100.036001,17.3079959 100.191999,16.4880041 100.352,15.672 L102.032,8.352 L105.032,8.352 L106.712,15.672 C106.872001,16.472004 107.027999,17.2839959 107.18,18.108 C107.332001,18.9320041 107.487999,19.7679958 107.648,20.616 L107.744,20.616 C107.856001,19.7679958 107.963999,18.9360041 108.068,18.12 C108.172001,17.3039959 108.279999,16.4880041 108.392,15.672 L109.472,8.352 L112.856,8.352 L110.072,24 L105.632,24 L104.096,16.896 C103.967999,16.287997 103.852001,15.6760031 103.748,15.06 C103.643999,14.4439969 103.552,13.8480029 103.472,13.272 L103.376,13.272 C103.28,13.8480029 103.180001,14.4439969 103.076,15.06 C102.971999,15.6760031 102.856001,16.287997 102.728,16.896 L101.264,24 L96.896,24 L93.992,8.352 Z M116.024,19.608 C116.584003,20.0880024 117.203997,20.4799985 117.884,20.784 C118.564003,21.0880015 119.231997,21.24 119.888,21.24 C120.624004,21.24 121.171998,21.1040014 121.532,20.832 C121.892002,20.5599986 122.072,20.1920023 122.072,19.728 C122.072,19.4879988 122.020001,19.2800009 121.916,19.104 C121.811999,18.9279991 121.660001,18.7720007 121.46,18.636 C121.259999,18.4999993 121.020001,18.3720006 120.74,18.252 C120.459999,18.1319994 120.152002,18.0000007 119.816,17.856 L117.776,16.992 C117.375998,16.8319992 116.988002,16.6240013 116.612,16.368 C116.235998,16.1119987 115.900001,15.8120017 115.604,15.468 C115.307999,15.1239983 115.072001,14.7240023 114.896,14.268 C114.719999,13.8119977 114.632,13.2960029 114.632,12.72 C114.632,12.0799968 114.767999,11.4760028 115.04,10.908 C115.312001,10.3399972 115.695998,9.84400212 116.192,9.42 C116.688002,8.99599788 117.275997,8.6640012 117.956,8.424 C118.636003,8.1839988 119.383996,8.064 120.2,8.064 C121.112005,8.064 122.011996,8.23999824 122.9,8.592 C123.788004,8.94400176 124.567997,9.45599664 125.24,10.128 L123.44,12.36 C122.927997,11.959998 122.416003,11.6520011 121.904,11.436 C121.391997,11.2199989 120.824003,11.112 120.2,11.112 C119.591997,11.112 119.108002,11.2359988 118.748,11.484 C118.387998,11.7320012 118.208,12.0799978 118.208,12.528 C118.208,12.7680012 118.267999,12.9719992 118.388,13.14 C118.508001,13.3080008 118.675999,13.4599993 118.892,13.596 C119.108001,13.7320007 119.359999,13.8599994 119.648,13.98 C119.936001,14.1000006 120.247998,14.2319993 120.584,14.376 L122.6,15.192 C123.560005,15.5760019 124.315997,16.1039966 124.868,16.776 C125.420003,17.4480034 125.696,18.3359945 125.696,19.44 C125.696,20.0960033 125.564001,20.7159971 125.3,21.3 C125.035999,21.8840029 124.652003,22.3959978 124.148,22.836 C123.643997,23.2760022 123.024004,23.6279987 122.288,23.892 C121.551996,24.1560013 120.720005,24.288 119.792,24.288 C118.767995,24.288 117.748005,24.1000019 116.732,23.724 C115.715995,23.3479981 114.808004,22.7840038 114.008,22.032 L116.024,19.608 Z M128.36,8.352 L131.888,8.352 L131.888,21.024 L138.08,21.024 L138.08,24 L128.36,24 L128.36,8.352 Z M140.792,8.352 L150.584,8.352 L150.584,11.328 L144.32,11.328 L144.32,14.472 L149.648,14.472 L149.648,17.424 L144.32,17.424 L144.32,21.024 L150.824,21.024 L150.824,24 L140.792,24 L140.792,8.352 Z M156.992,11.328 L152.696,11.328 L152.696,8.352 L164.84,8.352 L164.84,11.328 L160.544,11.328 L160.544,24 L156.992,24 L156.992,11.328 Z M170.336,11.328 L166.04,11.328 L166.04,8.352 L178.184,8.352 L178.184,11.328 L173.888,11.328 L173.888,24 L170.336,24 L170.336,11.328 Z M180.632,8.352 L190.424,8.352 L190.424,11.328 L184.16,11.328 L184.16,14.472 L189.488,14.472 L189.488,17.424 L184.16,17.424 L184.16,21.024 L190.664,21.024 L190.664,24 L180.632,24 L180.632,8.352 Z M197.312,15.552 L199.136,15.552 C200.064005,15.552 200.771998,15.356002 201.26,14.964 C201.748002,14.571998 201.992,13.9920038 201.992,13.224 C201.992,12.4559962 201.748002,11.9200015 201.26,11.616 C200.771998,11.3119985 200.064005,11.16 199.136,11.16 L197.312,11.16 L197.312,15.552 Z M202.256,24 L199.256,18.36 L197.312,18.36 L197.312,24 L193.784,24 L193.784,8.352 L199.424,8.352 C200.256004,8.352 201.035996,8.4319992 201.764,8.592 C202.492004,8.7520008 203.127997,9.01999812 203.672,9.396 C204.216003,9.77200188 204.647998,10.2719969 204.968,10.896 C205.288002,11.5200031 205.448,12.2959954 205.448,13.224 C205.448,14.3760058 205.196003,15.3239963 204.692,16.068 C204.187997,16.8120037 203.512004,17.3679982 202.664,17.736 L206.216,24 L202.256,24 Z" id="GET-A-NEWSLETTER" fill="#444444" sketch:type="MSShapeGroup"></path>
    </g>
</svg>